<svg width="200" height="200" viewbox="0 0 200 200" xmlns="http://www.w3.org/2000/svg">

<!--
<json>
{
    "imgurl": "",
    "imgw": 4.743971328437736,
    "imgleft": -2.2873205904167726,
    "imgtop": -3.171985664218851,
    "imgangle": 0,
    "svgwidth": 200,
    "svgheight": 200,
    "unit": 100,
    "x0": 684,
    "y0": 399,
    "x0rel": 0,
    "y0rel": 0,
    "glyph": "0331,0332,0331,0336,0330,0332,0337,0336,0330,0333,0333,0330,0336,0331,0332,0337,0252,",
    "table": []
}
</json>
-->
	<path d="M73 127 L64 118 L82 101 L99 83 L117 65 L135 83 L117 101 L99 118 L82 136 L73 127 Z" stroke="black" stroke-width="10" fill="black"/>	<path d="M135 65 L126 56 L135 48 L144 56 L152 65 L144 74 L135 65 Z" stroke="black" stroke-width="10" fill="black"/>    <circle cx="144" cy="56" r="12.5" stroke="black" stroke-width="10" fill="black"/>
	<path d="M64 136 L73 145 L61 148 L49 151 L52 139 L55 127 L64 136 Z" stroke="black" stroke-width="10" fill="black"/>	<path d="M24 138 L24 99 L24 61 M23.606797749978647 61.10679774997916           A38.19660112501052 38.19660112501052 0 0 1 61.803398874988936 22.91019662496835L100 23 L138 23 M138.19660112500983 22.910196624968023           A38.19660112501052 38.19660112501052 0 0 1 176.39320225002058 61.10679774997838L176 99 L176 137 M176.39320225002075 137.49999999999926           A38.19660112501052 38.19660112501052 0 0 1 138.19660112501032 175.69660112500995L100 176 L62 176 M61.80339887498942 175.69660112501           A38.19660112501052 38.19660112501052 0 0 1 23.606797749978803 137.49999999999952" stroke="black" stroke-width="10" fill="none"/></svg>