<svg width="250" height="250" viewbox = "0 0 250 250"  xmlns="http://www.w3.org/2000/svg">

<!--
<json>
{
    "imgurl": "",
    "imgw": 4.743971328437736,
    "imgleft": -2.2873205904167726,
    "imgtop": -3.171985664218851,
    "imgangle": 0,
    "svgwidth": 250,
    "svgheight": 250,
    "unit": 100,
    "x0": 684,
    "y0": 399,
    "x0rel": 0,
    "y0rel": 0,
    "glyph": "0336,0331,0337,0244,",
    "table": []
}
</json>
-->
	<path d = "M25 175 L25 125 L25 75 M25 75           A50 50 0 0 1 75 25L125 25 L175 25 M175 25           A50 50 0 0 1 225 75L225 125 L225 175 M225 175           A50 50 0 0 1 175 225L125 225 L75 225 M74.99999999999999 225           A50 50 0 0 1 24.999999999999986 175" stroke = "black" stroke-width = "6" fill = "none" />	<path d = "M163 163 L163 87 L87 87 L87 163 L163 163 Z" stroke = "black" stroke-width = "6" fill = "none" />	<path d = "M201 201 L201 49 L49 49 L49 201 L201 201 Z" stroke = "black" stroke-width = "6" fill = "none" />    <line x1="201" y1="201" x2="163" y2="163" style="stroke:black;stroke-width:6" />
    <line x1="201" y1="49" x2="163" y2="87" style="stroke:black;stroke-width:6" />
    <line x1="49" y1="49" x2="87" y2="87" style="stroke:black;stroke-width:6" />
    <line x1="49" y1="201" x2="87" y2="163" style="stroke:black;stroke-width:6" />
</svg>